<?xml version="1.0" encoding="UTF-8"?>
<svg version="1.1" xmlns="http://www.w3.org/2000/svg" width="40" height="32">
<path d="M0 0 C1.32 0 2.64 0 4 0 C4.37125 1.2375 4.7425 2.475 5.125 3.75 C6.73388111 8.0916696 8.82828999 9.8697651 13 12 C13.66 12 14.32 12 15 12 C15.66 11.01 16.32 10.02 17 9 C17.99 9.33 18.98 9.66 20 10 C22.12448525 16.37345575 21.22909768 23.71174296 19 30 C18.01 30.495 18.01 30.495 17 31 C16.505 26.545 16.505 26.545 16 22 C14.741875 22.66 13.48375 23.32 12.1875 24 C9.41717626 25.45328458 8.19610552 26 5 26 C4.67 27.98 4.34 29.96 4 32 C2.68 32 1.36 32 0 32 C-0.33 30.02 -0.66 28.04 -1 26 C-1.515625 25.896875 -2.03125 25.79375 -2.5625 25.6875 C-5.86026435 24.75736134 -8.86633332 23.38604488 -12 22 C-12.33 24.97 -12.66 27.94 -13 31 C-15 30 -15 30 -15.6328125 28.21484375 C-18.24721604 16.11804009 -18.24721604 16.11804009 -16 10.5 C-15.67 10.005 -15.34 9.51 -15 9 C-12 10 -12 10 -11 12 C-5.76703685 10.59728028 -5.76703685 10.59728028 -2 7 C-1.25613932 4.69011685 -0.57809297 2.35684056 0 0 Z " fill="#6060E8" transform="translate(18,0)"/>
<path d="M0 0 C0.8353125 1.1446875 0.8353125 1.1446875 1.6875 2.3125 C3.98412874 4.98155503 5.87247757 6.43623879 9 8 C9.66 8 10.32 8 11 8 C11.66 7.01 12.32 6.02 13 5 C13.99 5.33 14.98 5.66 16 6 C18.12448525 12.37345575 17.22909768 19.71174296 15 26 C14.34 26.33 13.68 26.66 13 27 C12.67 24.03 12.34 21.06 12 18 C10.1128125 19.0209375 10.1128125 19.0209375 8.1875 20.0625 C6.04296875 21.22265625 6.04296875 21.22265625 4 22 C3.01 21.67 2.02 21.34 1 21 C1.01160156 20.23816406 1.02320312 19.47632812 1.03515625 18.69140625 C1.09047294 12.36159678 0.8365926 6.27444451 0 0 Z " fill="#6060E8" transform="translate(22,4)"/>
<path d="M0 0 C1.32 0 2.64 0 4 0 C5.93489854 10.71104549 7.80701102 21.53071968 4 32 C2.68 32 1.36 32 0 32 C-3.80701102 21.53071968 -1.93489854 10.71104549 0 0 Z " fill="#2B2AF4" transform="translate(18,0)"/>
<path d="M0 0 C0.99 0.33 1.98 0.66 3 1 C5.12448525 7.37345575 4.22909768 14.71174296 2 21 C1.34 21.33 0.68 21.66 0 22 C-1.65272299 14.8154356 -2.4858643 8.2942429 -1 1 C-0.67 0.67 -0.34 0.34 0 0 Z " fill="#3D3BF2" transform="translate(35,9)"/>
<path d="M0 0 C0.99 0.33 1.98 0.66 3 1 C4.18982084 8.41226226 3.67959957 14.69860023 2 22 C0 21 0 21 -0.6328125 19.21484375 C-3.24721604 7.11804009 -3.24721604 7.11804009 -1 1.5 C-0.67 1.005 -0.34 0.51 0 0 Z " fill="#3D3BF2" transform="translate(3,9)"/>
<path d="M0 0 C2.58789062 1.5625 2.58789062 1.5625 5.17578125 3.125 C7.11361926 4.21623999 7.11361926 4.21623999 10 4 C9.34 6.31 8.68 8.62 8 11 C7.34 10.67 6.68 10.34 6 10 C6 9.34 6 8.68 6 8 C5.34 8 4.68 8 4 8 C4 7.34 4 6.68 4 6 C3.34 6 2.68 6 2 6 C2 5.34 2 4.68 2 4 C1.34 4 0.68 4 0 4 C0 2.68 0 1.36 0 0 Z " fill="#7878EC" transform="translate(24,8)"/>
<path d="M0 0 C0.33 1.32 0.66 2.64 1 4 C0.34 4 -0.32 4 -1 4 C-1 4.66 -1 5.32 -1 6 C-1.66 6 -2.32 6 -3 6 C-3 6.66 -3 7.32 -3 8 C-3.66 8 -4.32 8 -5 8 C-5 8.66 -5 9.32 -5 10 C-5.99 9.67 -6.98 9.34 -8 9 C-8.33 7.35 -8.66 5.7 -9 4 C-8.2575 3.896875 -7.515 3.79375 -6.75 3.6875 C-3.82985982 2.95746496 -2.26812446 1.93210602 0 0 Z " fill="#7979EC" transform="translate(15,8)"/>
<path d="M0 0 C1.32 0 2.64 0 4 0 C3.74438677 2.3431213 3.40729228 4.67843403 3 7 C2.01 7.495 2.01 7.495 1 8 C0.67 5.36 0.34 2.72 0 0 Z " fill="#CF6416" transform="translate(34,23)"/>
<path d="M0 0 C1.32 0 2.64 0 4 0 C3.67 2.64 3.34 5.28 3 8 C2.34 7.67 1.68 7.34 1 7 C0.59270772 4.67843403 0.25561323 2.3431213 0 0 Z " fill="#CF6416" transform="translate(2,23)"/>
<path d="M0 0 C0 0.66 0 1.32 0 2 C-3.465 3.485 -3.465 3.485 -7 5 C-7 3.68 -7 2.36 -7 1 C-4.53721199 -0.231394 -2.7204945 -0.07159196 0 0 Z " fill="#5C5CD1" transform="translate(32,21)"/>
<path d="M0 0 C2.31 0.33 4.62 0.66 7 1 C6.67 2.32 6.34 3.64 6 5 C4.02 4.01 2.04 3.02 0 2 C0 1.34 0 0.68 0 0 Z " fill="#5C5CD1" transform="translate(8,21)"/>
<path d="M0 0 C1.32 0 2.64 0 4 0 C4 1.65 4 3.3 4 5 C2.68 5 1.36 5 0 5 C0 3.35 0 1.7 0 0 Z " fill="#2D2DC6" transform="translate(18,27)"/>
<path d="" fill="#FF730D" transform="translate(0,0)"/>
<path d="" fill="#FF730D" transform="translate(0,0)"/>
</svg>
